<svg xmlns="http://www.w3.org/2000/svg" width="32" height="32"><path style="line-height:normal;text-indent:0;text-align:start;text-decoration-line:none;text-decoration-style:solid;text-decoration-color:#000;text-transform:none;block-progression:tb;white-space:normal;isolation:auto;mix-blend-mode:normal;solid-color:#000;solid-opacity:1" d="M16 1.002a6.508 6.508 0 0 0-6.5 6.5c0 3.584 2.916 6.5 6.5 6.5s6.5-2.916 6.5-6.5-2.916-6.5-6.5-6.5zm0 1c3.043 0 5.5 2.456 5.5 5.5 0 3.043-2.457 5.5-5.5 5.5a5.492 5.492 0 0 1-5.5-5.5c0-3.044 2.457-5.5 5.5-5.5zM10 15a4.501 4.501 0 0 0-4.5 4.5v11a.5.5 0 0 0 .5.5h20a.5.5 0 0 0 .5-.5v-11c0-2.484-2.016-4.5-4.5-4.5H10zm0 1h2.639l2.886 8.658a.5.5 0 0 0 .95 0L19.36 16H22c1.948 0 3.5 1.552 3.5 3.5V30h-19V19.5c0-1.948 1.552-3.5 3.5-3.5zm3.693 0h4.614L16 22.92 13.693 16z" color="#000" enable-background="accumulate" font-family="sans-serif" font-weight="400" overflow="visible"/></svg>